<?xml version="1.0" encoding="UTF-8"?>
<svg version="1.1" xmlns="http://www.w3.org/2000/svg" width="48" height="48">
<path d="M0 0 C4.89699907 2.27360671 7.47840287 5.24775926 10 10 C10 11.65 10 13.3 10 15 C13.96 15 17.92 15 22 15 C22 15.66 22 16.32 22 17 C18.04 17 14.08 17 10 17 C9.40044543 20.23759468 9.14368382 21.8769645 10 25 C12.42502303 27.77388599 15.00240957 30.12704144 17.8125 32.5078125 C20 35 20 35 20.375 38.2421875 C20 41 20 41 19 42 C16.21484375 42.375 16.21484375 42.375 13 42 C10.75390625 39.8125 10.75390625 39.8125 8.5625 37 C5.38743812 33.55994813 3.9226665 32.12812157 -0.76953125 31.4765625 C-4.71594609 31.57517511 -4.71594609 31.57517511 -8.484375 32.0390625 C-12.87181603 31.99031316 -14.6470321 30.74554618 -18 28 C-20.4761458 24.93739862 -21.90691331 23.07049691 -22.25 19.125 C-22.1675 18.42375 -22.085 17.7225 -22 17 C-22.66 17 -23.32 17 -24 17 C-24 16.34 -24 15.68 -24 15 C-23.34 15 -22.68 15 -22 15 C-21.938125 13.96875 -21.87625 12.9375 -21.8125 11.875 C-20.7940677 7.01786134 -19.47334741 5.47334741 -16 2 C-11.12972718 -1.09542285 -5.55638055 -0.5958585 0 0 Z M6 27 C5.67854359 30.10917519 5.67854359 30.10917519 7.8984375 32.26171875 C9.12433594 33.46248047 9.12433594 33.46248047 10.375 34.6875 C11.18710937 35.49574219 11.99921875 36.30398437 12.8359375 37.13671875 C14.77665326 39.21749317 14.77665326 39.21749317 17 39 C15.52651292 35.57472113 13.59092154 33.35044942 10.9375 30.75 C10.22464844 30.04359375 9.51179688 29.3371875 8.77734375 28.609375 C7.27607496 26.88813135 7.27607496 26.88813135 6 27 Z " fill="#6AE1A1" transform="translate(25,3)"/>
<path d="M0 0 C4.18799586 0.51860696 6.30590176 2.80796532 9.25 5.6875 C10.14203125 6.53699219 11.0340625 7.38648438 11.953125 8.26171875 C14.3632116 11.48589948 14.51786591 13.06534487 14 17 C13 18 13 18 10.3046875 18.39453125 C5.94163999 17.87364733 3.98625337 15.770345 1.125 12.6875 C0.62742187 12.18798828 0.12984375 11.68847656 -0.3828125 11.17382812 C-4 7.42248669 -4 7.42248669 -4 4 C0.07547718 4.52106557 1.86650427 6.58466672 4.625 9.5 C7.50277024 12.66693163 7.50277024 12.66693163 11 15 C6.44997265 9.68496289 6.44997265 9.68496289 1.5625 4.6875 C0 3 0 3 0 0 Z " fill="#324761" transform="translate(31,27)"/>
<path d="M0 0 C0.66 0 1.32 0 2 0 C6 6.75 6 6.75 6 9 C12.6 9 19.2 9 26 9 C26 9.66 26 10.32 26 11 C22.58397985 11.17446934 19.16910363 11.28089623 15.75 11.375 C14.29787109 11.45041016 14.29787109 11.45041016 12.81640625 11.52734375 C11.41455078 11.55634766 11.41455078 11.55634766 9.984375 11.5859375 C8.69611816 11.63306885 8.69611816 11.63306885 7.38183594 11.68115234 C5 11 5 11 1 5 C-0.98 9.62 -2.96 14.24 -5 19 C-5.66 19 -6.32 19 -7 19 C-7.474375 17.865625 -7.94875 16.73125 -8.4375 15.5625 C-9.84005264 13.03280505 -10.46212744 12.16293558 -13.26953125 11.3125 C-15.53014308 11.08465881 -17.72893152 10.96603103 -20 11 C-20 10.34 -20 9.68 -20 9 C-18.41906283 8.8642325 -16.83473048 8.76765255 -15.25 8.6875 C-14.36828125 8.62949219 -13.4865625 8.57148438 -12.578125 8.51171875 C-10 9 -10 9 -6 14 C-4.02 9.38 -2.04 4.76 0 0 Z " fill="#365166" transform="translate(21,9)"/>
<path d="M0 0 C3.3 0 6.6 0 10 0 C10.66 1.32 11.32 2.64 12 4 C11.01 4.495 11.01 4.495 10 5 C9.67 4.34 9.34 3.68 9 3 C6.87423218 2.53348793 6.87423218 2.53348793 4.4375 2.375 C3.61121094 2.30023437 2.78492188 2.22546875 1.93359375 2.1484375 C1.29550781 2.09945313 0.65742188 2.05046875 0 2 C0 1.34 0 0.68 0 0 Z " fill="#334962" transform="translate(1,18)"/>
</svg>
